<svg width="19" height="18" viewBox="0 0 19 18" fill="none" xmlns="http://www.w3.org/2000/svg">
<g id="&#236;&#158;&#144;&#236;&#130;&#176; 2 1" clip-path="url(#clip0_284_2096)">
<g id="Group 14329">
<path id="Vector" d="M6.15355 6.55448C6.33333 6.73655 6.56828 6.82759 6.80527 6.82759C7.04226 6.82759 7.27516 6.73655 7.45495 6.55655L9.82075 4.1669C10.0516 3.99724 10.2028 3.72414 10.2028 3.41379C10.2028 3.08483 10.0332 2.79724 9.77989 2.63172L7.45495 0.273103C7.09742 -0.0910345 6.51516 -0.0910345 6.15559 0.273103C5.79602 0.635172 5.79602 1.22483 6.15559 1.58897L7.03613 2.48276H5.78376C2.25548 2.48276 0 5.40621 0 9C0 12.5938 2.86839 15.5172 6.39462 15.5172C6.90333 15.5172 7.31398 15.1014 7.31398 14.5862C7.31398 14.071 6.90333 13.6552 6.39462 13.6552C3.88172 13.6552 1.83871 11.5676 1.83871 9C1.83871 6.43241 3.26882 4.34483 5.78172 4.34483H7.03817L6.15355 5.23655C5.79398 5.59862 5.79398 6.18828 6.15355 6.55241V6.55448Z" fill="white"/>
<path id="Vector_2" d="M19 9.00003C19 5.40624 15.9764 2.48279 12.2622 2.48279C11.7535 2.48279 11.3428 2.89865 11.3428 3.41382C11.3428 3.92899 11.7535 4.34486 12.2622 4.34486C14.963 4.34486 17.1613 6.43244 17.1613 9.00003C17.1613 11.5676 14.963 13.6552 12.2622 13.6552H11.2979L12.1702 12.7552C12.5257 12.389 12.5216 11.7993 12.158 11.4393C11.7964 11.0793 11.2141 11.0835 10.8586 11.4518L8.50917 13.8724C8.43357 13.9345 8.3682 14.009 8.31508 14.0918C8.20271 14.2511 8.14142 14.4414 8.14347 14.638C8.14551 14.8842 8.24562 15.12 8.41927 15.2938L10.8709 17.7331C11.0507 17.9111 11.2815 18 11.5144 18C11.7473 18 11.9905 17.9069 12.1702 17.7207C12.5257 17.3545 12.5216 16.7649 12.158 16.4049L11.2652 15.5173H12.2622C15.9784 15.5173 19 12.5938 19 9.00003Z" fill="white"/>
</g>
<path id="Vector_3" d="M6.15355 6.55448C6.33333 6.73655 6.56828 6.82759 6.80527 6.82759C7.04226 6.82759 7.27516 6.73655 7.45495 6.55655L9.82075 4.1669C10.0516 3.99724 10.2028 3.72414 10.2028 3.41379C10.2028 3.08483 10.0332 2.79724 9.77989 2.63172L7.45495 0.273103C7.09742 -0.0910345 6.51516 -0.0910345 6.15559 0.273103C5.79602 0.635172 5.79602 1.22483 6.15559 1.58897L7.03613 2.48276H5.78376C2.25548 2.48276 0 5.40621 0 9C0 12.5938 2.86839 15.5172 6.39462 15.5172C6.90333 15.5172 7.31398 15.1014 7.31398 14.5862C7.31398 14.071 6.90333 13.6552 6.39462 13.6552C3.88172 13.6552 1.83871 11.5676 1.83871 9C1.83871 6.43241 3.26882 4.34483 5.78172 4.34483H7.03817L6.15355 5.23655C5.79398 5.59862 5.79398 6.18828 6.15355 6.55241V6.55448Z" fill="#999999"/>
<path id="Vector_4" d="M18.9999 8.99991C18.9999 5.40611 15.9763 2.48267 12.2621 2.48267C11.7534 2.48267 11.3427 2.89853 11.3427 3.4137C11.3427 3.92887 11.7534 4.34473 12.2621 4.34473C14.9629 4.34473 17.1612 6.43232 17.1612 8.99991C17.1612 11.5675 14.9629 13.6551 12.2621 13.6551H11.2978L12.1701 12.7551C12.5256 12.3889 12.5215 11.7992 12.1579 11.4392C11.7963 11.0792 11.214 11.0834 10.8585 11.4516L8.50906 13.8723C8.43347 13.9344 8.36809 14.0089 8.31497 14.0916C8.20261 14.2509 8.14132 14.4413 8.14336 14.6378C8.1454 14.884 8.24551 15.1199 8.41917 15.2937L10.8708 17.733C11.0506 17.9109 11.2814 17.9999 11.5143 17.9999C11.7472 17.9999 11.9903 17.9068 12.1701 17.7206C12.5256 17.3544 12.5215 16.7647 12.1579 16.4047L11.2651 15.5171H12.2621C15.9783 15.5171 18.9999 12.5937 18.9999 8.99991Z" fill="#999999"/>
</g>
<defs>
<clipPath id="clip0_284_2096">
<rect width="19" height="18" fill="white"/>
</clipPath>
</defs>
</svg>
