<svg width="18" height="16" viewBox="0 0 18 16" fill="none" xmlns="http://www.w3.org/2000/svg">
<path id="Vector" d="M17.8378 13.1873C17.8578 13.1574 17.8733 13.1275 17.8889 13.0977C17.9022 13.0742 17.9156 13.0529 17.9244 13.0273C17.94 12.9889 17.9511 12.9505 17.9622 12.9121C17.9667 12.8929 17.9756 12.8737 17.98 12.8545C17.9933 12.7947 18 12.7329 18 12.671C18 12.671 18 12.6689 18 12.6667C18 12.6561 17.9978 12.6454 17.9956 12.6326C17.9956 12.5835 17.9889 12.5345 17.98 12.4875C17.9756 12.4641 17.9667 12.4406 17.96 12.4171C17.9511 12.383 17.94 12.3489 17.9267 12.3147C17.9156 12.2891 17.9022 12.2657 17.8889 12.2401C17.8733 12.2102 17.8578 12.1825 17.84 12.1547C17.8222 12.1291 17.8044 12.1057 17.7844 12.0822C17.7711 12.0651 17.76 12.0459 17.7444 12.031L15.4689 9.57127C15.1022 9.17447 14.4689 9.1382 14.0578 9.4902C13.6444 9.8422 13.6067 10.4481 13.9733 10.8449L14.7711 11.7067H13.5578C12.6689 11.7067 11.8289 11.2203 11.3089 10.4033L9.78 8.00113L11.3089 5.599C11.8289 4.78193 12.6689 4.29553 13.5578 4.29553H14.7733L13.9756 5.1574C13.6089 5.5542 13.6467 6.16007 14.06 6.51207C14.2511 6.6742 14.4867 6.75313 14.7244 6.75313C15 6.75313 15.2756 6.64433 15.4733 6.431L17.7489 3.97127C17.7644 3.9542 17.7756 3.93713 17.7889 3.92007C17.8089 3.8966 17.8267 3.87313 17.8444 3.84753C17.8622 3.8198 17.8778 3.78993 17.8933 3.7622C17.9067 3.7366 17.92 3.71313 17.9311 3.68753C17.9444 3.6534 17.9533 3.61927 17.9644 3.58513C17.9711 3.56167 17.98 3.5382 17.9844 3.5126C17.9933 3.46567 17.9978 3.41873 18 3.36967C18 3.35687 18.0044 3.3462 18.0044 3.3334C18.0044 3.3334 18.0044 3.33127 18.0044 3.32913C18.0044 3.26727 17.9978 3.20753 17.9844 3.1478C17.98 3.12647 17.9711 3.10727 17.9667 3.08593C17.9556 3.04753 17.9467 3.01127 17.9311 2.975C17.92 2.9494 17.9067 2.92593 17.8933 2.90247C17.8778 2.8726 17.8622 2.84273 17.8444 2.815C17.8267 2.7894 17.8067 2.76807 17.7889 2.7446C17.7733 2.7254 17.76 2.70407 17.7422 2.68487L15.4667 0.310466C15.0933 -0.0799338 14.46 -0.105534 14.0533 0.252866C13.6467 0.611266 13.62 1.21927 13.9933 1.60967L14.7267 2.37553H13.5644C11.9733 2.37553 10.4956 3.2054 9.61111 4.59847L8.61778 6.16007L7.73111 4.76913C6.84444 3.3782 5.36667 2.5462 3.77778 2.5462H1C0.446667 2.5462 0 2.975 0 3.5062C0 4.0374 0.446667 4.4662 1 4.4662H3.77333C4.66222 4.4662 5.50222 4.9526 6.02222 5.76967L7.44222 8.00113L6.02222 10.2326C5.50222 11.0497 4.66222 11.5361 3.77333 11.5361H1C0.446667 11.5361 0 11.9649 0 12.4961C0 13.0273 0.446667 13.4561 1 13.4561H3.77333C5.36444 13.4561 6.84222 12.6262 7.72667 11.2331L8.61333 9.8422L9.60667 11.4038C10.4933 12.7947 11.9711 13.6267 13.56 13.6267H14.7222L13.9889 14.3926C13.6156 14.783 13.6422 15.391 14.0489 15.7494C14.24 15.9179 14.4844 16.0033 14.7244 16.0033C14.9933 16.0033 15.2644 15.8987 15.46 15.6939L17.7356 13.3195C17.7533 13.3003 17.7667 13.279 17.7822 13.2598C17.8022 13.2363 17.82 13.215 17.8378 13.1894V13.1873Z" fill="#999999"/>
</svg>
